<?xml version="1.0" ?><svg id="Слой_1" style="enable-background:new 0 0 512 512;" version="1.1" viewBox="0 0 512 512" xml:space="preserve" xmlns="http://www.w3.org/2000/svg" xmlns:xlink="http://www.w3.org/1999/xlink"><style type="text/css">
	.st0{fill:#F18A62;stroke:#3D3D3D;stroke-width:10;stroke-miterlimit:10;}
	.st1{fill:#2A616C;stroke:#3D3D3D;stroke-width:10;stroke-miterlimit:10;}
</style><g><path class="st0" d="M201.8,261.6c-14.7-8.4,5-41.4,54.9-40.4s51.9,54,39.3,85.5C284.5,335.7,220,354,220,377.3   c0,23.4,83.6-11.4,83.6,18.1c0,27.1-153.9,35.6-93.6-40.4c19-24,88.6-62.7,66.5-98.3C256.7,225.2,219.4,271.5,201.8,261.6z"/><path class="st1" d="M104.5,251.6c-0.2-10.3,63.5-3.9,65-78.8c0.9-42.5-42.6-67.5-80.3-81.3c-26.5-9.7-54.2,11-54.2,40.6v241.2   c0,28.9,25.4,43.9,52.7,41.1c46.6-4.7,98.5-28.1,98.5-101.5C186.1,244.5,104.7,263.7,104.5,251.6z M66.8,162.5   c1.5-32.2,14.4-30.8,33.4-30.8c18.9,0,34.3,19.2,34.3,39.1s-13.8,29.3-31.6,37.8C85.5,216.9,63.6,230.4,66.8,162.5z M107.9,379.8   c-23.3,0-39.2,1.7-41.1-37.9c-3.1-63.7,29.3-63.9,50.4-53.7c22,10.5,32.8,12.7,32.8,43.5C150.1,356.2,131.2,379.8,107.9,379.8z"/><path class="st1" d="M396.6,251.6c-0.2-10.3,63.5-3.9,65-78.8c0.9-42.5-42.6-67.5-80.3-81.3c-26.5-9.7-54.2,11-54.2,40.6v241.2   c0,28.9,25.4,43.9,52.7,41.1c46.6-4.7,98.5-28.1,98.5-101.5C478.2,244.5,396.8,263.7,396.6,251.6z M358.9,162.5   c1.5-32.2,14.4-30.8,33.4-30.8c18.9,0,34.3,19.2,34.3,39.1s-13.8,29.3-31.6,37.8C377.6,216.9,355.7,230.4,358.9,162.5z M400,379.8   c-23.3,0-39.2,1.7-41.1-37.9c-3.1-63.7,29.3-63.9,50.4-53.7c22,10.5,32.8,12.7,32.8,43.5C442.2,356.2,423.3,379.8,400,379.8z"/></g></svg>